<svg xmlns="http://www.w3.org/2000/svg" width="34.015" height="23.385" viewBox="0 0 34.015 23.385">
  <g id="_001-usa" data-name="001-usa" transform="translate(0 -80)">
    <path id="Path_1" data-name="Path 1" d="M15.612,80H1.063A1.063,1.063,0,0,0,0,81.063v11.36a.332.332,0,0,0,.332.332h15.28a.332.332,0,0,0,.332-.332V80.332A.332.332,0,0,0,15.612,80ZM9.567,82.126A1.063,1.063,0,1,1,8.5,83.189,1.063,1.063,0,0,1,9.567,82.126Zm-3.189,0a1.063,1.063,0,1,1-1.063,1.063A1.063,1.063,0,0,1,6.378,82.126Zm-3.189,0a1.063,1.063,0,1,1-1.063,1.063A1.063,1.063,0,0,1,3.189,82.126Zm0,8.5a1.063,1.063,0,1,1,1.063-1.063A1.063,1.063,0,0,1,3.189,90.63Zm.531-4.252a1.063,1.063,0,1,1,1.063,1.063A1.063,1.063,0,0,1,3.72,86.378ZM6.378,90.63a1.063,1.063,0,1,1,1.063-1.063A1.063,1.063,0,0,1,6.378,90.63Zm.531-4.252a1.063,1.063,0,1,1,1.063,1.063A1.063,1.063,0,0,1,6.909,86.378ZM9.567,90.63a1.063,1.063,0,1,1,1.063-1.063A1.063,1.063,0,0,1,9.567,90.63Zm.531-4.252a1.063,1.063,0,1,1,1.063,1.063A1.063,1.063,0,0,1,10.1,86.378Zm2.657,4.252a1.063,1.063,0,1,1,1.063-1.063A1.063,1.063,0,0,1,12.756,90.63Zm0-6.378a1.063,1.063,0,1,1,1.063-1.063A1.063,1.063,0,0,1,12.756,84.252Z" fill="#ffd200"/>
    <path id="Path_2" data-name="Path 2" d="M286.882,80H272.332a.332.332,0,0,0-.332.332v2.525a.332.332,0,0,0,.332.332h15.28a.332.332,0,0,0,.332-.332V81.063A1.063,1.063,0,0,0,286.882,80Z" transform="translate(-253.93)" fill="#ffd200"/>
    <path id="Path_3" data-name="Path 3" d="M272,161.063v1.262a.332.332,0,0,0,.332.332h15.28a.332.332,0,0,0,.332-.332v-1.993a.332.332,0,0,0-.332-.332h-15.28a.332.332,0,0,0-.332.332Z" transform="translate(-253.93 -74.685)" fill="#ffd200"/>
    <path id="Path_4" data-name="Path 4" d="M272,234.325a.332.332,0,0,0,.332.332h15.28a.332.332,0,0,0,.332-.332v-1.993a.332.332,0,0,0-.332-.332h-15.28a.332.332,0,0,0-.332.332Z" transform="translate(-253.93 -141.902)" fill="#ffd200"/>
    <path id="Path_5" data-name="Path 5" d="M0,304.332v2.525a.332.332,0,0,0,.332.332H33.683a.332.332,0,0,0,.332-.332v-2.525a.332.332,0,0,0-.332-.332H.332A.332.332,0,0,0,0,304.332Z" transform="translate(0 -209.118)" fill="#ffd200"/>
    <path id="Path_6" data-name="Path 6" d="M0,384.332v1.794a1.063,1.063,0,0,0,1.063,1.063H32.952a1.063,1.063,0,0,0,1.063-1.063v-1.794a.332.332,0,0,0-.332-.332H.332A.332.332,0,0,0,0,384.332Z" transform="translate(0 -283.804)" fill="#ffd200"/>
  </g>
</svg>
